<svg width="31" height="32" viewBox="0 0 31 32" fill="none" xmlns="http://www.w3.org/2000/svg">
<path d="M22.5 32C10.0938 32 0 21.9063 0 9.50001C0.00469118 7.37198 0.78199 5.31805 2.18738 3.7201C3.59277 2.12216 5.53061 1.08893 7.64062 0.812512C8.17851 0.752873 8.72141 0.86612 9.19059 1.13583C9.65977 1.40554 10.0308 1.81769 10.25 2.31251L13.3906 9.64064C13.5535 10.021 13.6189 10.4361 13.5807 10.8481C13.5425 11.2601 13.4019 11.6561 13.1719 12L10.5781 15.9688C11.7526 18.3523 13.6879 20.2766 16.0781 21.4375L20 18.8281C20.3436 18.5965 20.7405 18.4563 21.1534 18.4208C21.5662 18.3853 21.9813 18.4555 22.3594 18.625L29.6875 21.75C30.1823 21.9692 30.5945 22.3402 30.8642 22.8094C31.1339 23.2786 31.2471 23.8215 31.1875 24.3594C30.9111 26.4694 29.8779 28.4072 28.2799 29.8126C26.682 31.218 24.628 31.9953 22.5 32ZM7.95312 3.29689C6.44524 3.49072 5.0597 4.22753 4.05593 5.36935C3.05216 6.51118 2.49899 7.97971 2.5 9.50001C2.50414 14.8031 4.6126 19.8877 8.36244 23.6376C12.1123 27.3874 17.1969 29.4959 22.5 29.5C24.0203 29.501 25.4888 28.9479 26.6307 27.9441C27.7725 26.9403 28.5093 25.5548 28.7031 24.0469L21.375 20.9219L17.4688 23.5313C17.1093 23.7689 16.6946 23.9096 16.2648 23.9397C15.835 23.9698 15.4047 23.8883 15.0156 23.7031C12.1046 22.295 9.74989 19.9513 8.32812 17.0469C8.14067 16.6592 8.05655 16.2296 8.08393 15.7998C8.1113 15.37 8.24924 14.9546 8.48438 14.5938L11.0938 10.625L7.95312 3.29689Z" fill="#8F4E4A"/>
</svg>
