<svg width="29" height="37" viewBox="0 0 29 37" fill="none" xmlns="http://www.w3.org/2000/svg">
<path fill-rule="evenodd" clip-rule="evenodd" d="M14.5 35.7286L15.8521 34.205C17.3864 32.4479 18.7664 30.7807 19.9943 29.195L21.0078 27.8579C25.24 22.1557 27.3571 17.63 27.3571 14.285C27.3571 7.145 21.6014 1.35715 14.5 1.35715C7.39854 1.35715 1.64282 7.145 1.64282 14.285C1.64282 17.63 3.75996 22.1557 7.99211 27.8579L9.00568 29.195C10.7573 31.4394 12.59 33.6194 14.5 35.7307V35.7286Z" stroke="#8F4E4A" stroke-width="2.5" stroke-linecap="round" stroke-linejoin="round"/>
<path d="M14.5 19.5714C17.4586 19.5714 19.8571 17.173 19.8571 14.2143C19.8571 11.2556 17.4586 8.85715 14.5 8.85715C11.5413 8.85715 9.14282 11.2556 9.14282 14.2143C9.14282 17.173 11.5413 19.5714 14.5 19.5714Z" stroke="#8F4E4A" stroke-width="2.5" stroke-linecap="round" stroke-linejoin="round"/>
</svg>
